<?xml version="1.0" encoding="UTF-8" standalone="no"?>
<!-- Uploaded to: SVG Repo, www.svgrepo.com, Generator: SVG Repo Mixer Tools -->

<svg
   fill="#000000"
   width="800px"
   height="800px"
   viewBox="0 0 32 32"
   version="1.1"
   id="svg4"
   sodipodi:docname="flask.svg"
   inkscape:version="1.4 (e7c3feb1, 2024-10-09)"
   xmlns:inkscape="http://www.inkscape.org/namespaces/inkscape"
   xmlns:sodipodi="http://sodipodi.sourceforge.net/DTD/sodipodi-0.dtd"
   xmlns="http://www.w3.org/2000/svg"
   xmlns:svg="http://www.w3.org/2000/svg">
  <defs
     id="defs4" />
  <sodipodi:namedview
     id="namedview4"
     pagecolor="#ffffff"
     bordercolor="#000000"
     borderopacity="0.25"
     inkscape:showpageshadow="2"
     inkscape:pageopacity="0.0"
     inkscape:pagecheckerboard="0"
     inkscape:deskcolor="#d1d1d1"
     inkscape:zoom="0.46019408"
     inkscape:cx="526.95158"
     inkscape:cy="655.15836"
     inkscape:window-width="1104"
     inkscape:window-height="1242"
     inkscape:window-x="7"
     inkscape:window-y="52"
     inkscape:window-maximized="0"
     inkscape:current-layer="Layer_2" />
  <title
     id="title1" />
  <g
     data-name="Layer 2"
     id="Layer_2">
    <path
       d="M26,19.72a10,10,0,0,0-6-8.88V8h1a1,1,0,0,0,0-2H11a1,1,0,0,0,0,2h1v2.84a10,10,0,0,0-5.84,7.44A9,9,0,0,0,6,20a2.62,2.62,0,0,0,0,.28,10,10,0,0,0,19.84,1.44A9.74,9.74,0,0,0,26,20,2.62,2.62,0,0,0,26,19.72Zm-2.16,1.93A8,8,0,0,1,8,20.36c0-.12,0-.24,0-.36a7.43,7.43,0,0,1,.18-1.64,8,8,0,0,1,5.15-5.89,1,1,0,0,0,.67-1V8h4v3.52a1,1,0,0,0,.67,1A8,8,0,0,1,24,19.64,2.17,2.17,0,0,1,24,20,8.17,8.17,0,0,1,23.83,21.65Z"
       id="path1"
       style="stroke:none;stroke-opacity:1;fill:#073b4c;fill-opacity:1" />
    <path
       d="M22,20a6,6,0,0,1-12,0,5.29,5.29,0,0,1,.1-1.06l.33.16a5.12,5.12,0,0,0,2.57.62,5.12,5.12,0,0,0,2.57-.62A6.84,6.84,0,0,1,19,18.28a6.75,6.75,0,0,1,2.89.57A6.23,6.23,0,0,1,22,20Z"
       id="path2"
       style="fill:#ef476f;fill-opacity:1" />
    <path
       d="m 8,8 c -0.00539,0.4119621 -0.3380379,0.7446142 -0.75,0.75 -0.8261577,0.00545 -1.4945466,0.6738423 -1.5,1.5 0,1 -1.5,1 -1.5,0 0,-0.8284271 -0.6715729,-1.5 -1.5,-1.5 -0.9999996,0 -0.9999996,-1.5 0,-1.5 0.8284271,0 1.5,-0.6715729 1.5,-1.5 0,-0.9999996 1.5,-0.9999996 1.5,0 0.00545,0.8261577 0.6738423,1.4945466 1.5,1.5 C 7.6619621,7.2553858 7.9946142,7.5880379 8,8 Z"
       id="path3"
       style="fill:#ef476f;fill-opacity:1"
       sodipodi:nodetypes="cccssssccc" />
    <path
       d="m 30,5 c -0.0054,0.4119621 -0.338038,0.7446142 -0.75,0.75 -0.826158,0.00545 -1.494547,0.6738423 -1.5,1.5 0,0.9999996 -1.5,0.9999996 -1.5,0 0,-0.8284271 -0.671573,-1.5 -1.5,-1.5 -1,0 -1,-1.5 0,-1.5 0.828427,0 1.5,-0.6715729 1.5,-1.5 0,-0.9999996 1.5,-0.9999996 1.5,0 0.0055,0.8261577 0.673842,1.4945466 1.5,1.5 0.411962,0.00539 0.744614,0.3380379 0.75,0.75 z"
       id="path4"
       style="fill:#ef476f;fill-opacity:1"
       sodipodi:nodetypes="cccssssccc" />
  </g>
</svg>
